<svg width="28" height="28" viewBox="0 0 28 28" fill="none" xmlns="http://www.w3.org/2000/svg">
<path d="M4.9707 12.8567V18.6551C4.9707 20.7784 4.9707 20.7784 6.97737 22.1317L12.4957 25.3167C13.324 25.7951 14.6774 25.7951 15.5057 25.3167L21.024 22.1317C23.0307 20.7784 23.0307 20.7784 23.0307 18.6551V12.8567C23.0307 10.7334 23.0307 10.7334 21.024 9.38005L15.5057 6.19505C14.6774 5.71672 13.324 5.71672 12.4957 6.19505L6.97737 9.38005C4.9707 10.7334 4.9707 10.7334 4.9707 12.8567Z" stroke="#717171" stroke-width="2" stroke-linecap="round" stroke-linejoin="round"/>
<path d="M20.4173 8.90171V5.83337C20.4173 3.50004 19.2506 2.33337 16.9173 2.33337H11.084C8.75065 2.33337 7.58398 3.50004 7.58398 5.83337V8.82004" stroke="#717171" stroke-width="2" stroke-linecap="round" stroke-linejoin="round"/>
<path d="M14.7351 12.8216L15.4001 13.86C15.5051 14.0233 15.7384 14.1866 15.9134 14.2333L17.1034 14.5366C17.8384 14.7233 18.0367 15.3533 17.5584 15.9366L16.7767 16.8816C16.6601 17.0333 16.5667 17.3016 16.5784 17.4883L16.6484 18.7133C16.6951 19.4716 16.1584 19.8566 15.4584 19.5766L14.3151 19.1216C14.1401 19.0516 13.8484 19.0516 13.6734 19.1216L12.5301 19.5766C11.8301 19.8566 11.2934 19.46 11.3401 18.7133L11.4101 17.4883C11.4217 17.3016 11.3284 17.0216 11.2117 16.8816L10.4301 15.9366C9.95174 15.3533 10.1501 14.7233 10.8851 14.5366L12.0751 14.2333C12.2617 14.1866 12.4951 14.0116 12.5884 13.86L13.2534 12.8216C13.6734 12.1916 14.3267 12.1916 14.7351 12.8216Z" stroke="#717171" stroke-width="2" stroke-linecap="round" stroke-linejoin="round"/>
</svg>
