<svg width="32" height="33" viewBox="0 0 32 33" fill="none" xmlns="http://www.w3.org/2000/svg">
<path d="M30.0014 16.8114C30.0014 15.6603 29.9061 14.8203 29.6998 13.9492H16.2871V19.1447H24.1601C24.0014 20.4359 23.1442 22.3803 21.2394 23.6869L21.2127 23.8609L25.4536 27.0805L25.7474 27.1092C28.4458 24.667 30.0014 21.0736 30.0014 16.8114Z" fill="#4285F4"/>
<path d="M16.2863 30.4998C20.1434 30.4998 23.3814 29.2553 25.7466 27.1086L21.2386 23.6863C20.0323 24.5108 18.4132 25.0863 16.2863 25.0863C12.5086 25.0863 9.30225 22.6441 8.15929 19.2686L7.99176 19.2825L3.58208 22.627L3.52441 22.7841C5.87359 27.3574 10.699 30.4998 16.2863 30.4998Z" fill="#34A853"/>
<path d="M8.15964 19.269C7.85806 18.3979 7.68352 17.4645 7.68352 16.5001C7.68352 15.5356 7.85806 14.6023 8.14377 13.7312L8.13578 13.5456L3.67083 10.1475L3.52475 10.2156C2.55654 12.1134 2.00098 14.2445 2.00098 16.5001C2.00098 18.7556 2.55654 20.8867 3.52475 22.7845L8.15964 19.269Z" fill="#FBBC05"/>
<path d="M16.2864 7.9133C18.9689 7.9133 20.7784 9.04885 21.8102 9.9978L25.8419 6.14C23.3658 3.88445 20.1435 2.5 16.2864 2.5C10.699 2.5 5.8736 5.6422 3.52441 10.2155L8.14345 13.7311C9.30229 10.3555 12.5086 7.9133 16.2864 7.9133Z" fill="#EB4335"/>
</svg>
