<svg width="72" height="72" viewBox="0 0 72 72" fill="none" xmlns="http://www.w3.org/2000/svg">
<mask id="mask0_9047_2521" style="mask-type:luminance" maskUnits="userSpaceOnUse" x="11" y="9" width="50" height="54">
<path d="M11.9375 9.2373H60.0625V62.8123H11.9375V9.2373Z" fill="white"/>
</mask>
<g mask="url(#mask0_9047_2521)">
<mask id="mask1_9047_2521" style="mask-type:luminance" maskUnits="userSpaceOnUse" x="11" y="9" width="50" height="54">
<path d="M15.5375 9.2373H56.4625C58.45 9.2373 60.0625 10.8498 60.0625 12.8373V59.1623C60.0625 61.1498 58.45 62.7623 56.4625 62.7623H15.5375C13.55 62.7623 11.9375 61.1498 11.9375 59.1623V12.8373C11.9375 10.8498 13.55 9.2373 15.5375 9.2373Z" fill="white"/>
</mask>
<g mask="url(#mask1_9047_2521)">
<path d="M11.9375 9.2373H60.0625V62.8123H11.9375V9.2373Z" fill="#99FF6D"/>
</g>
</g>
<mask id="mask2_9047_2521" style="mask-type:luminance" maskUnits="userSpaceOnUse" x="16" y="15" width="40" height="43">
<path d="M16.1172 15.0938H55.7172V57.0938H16.1172V15.0938Z" fill="white"/>
</mask>
<g mask="url(#mask2_9047_2521)">
<path d="M47.1594 36.8128C47.1844 38.7503 47.0969 41.1503 46.8344 43.4378C47.2031 43.1066 47.5719 42.8066 47.9344 42.5191C49.7281 41.0816 51.3281 39.8003 50.8719 37.6816C50.7469 37.0316 50.3969 36.5316 49.9469 36.2253C49.7281 36.0753 49.4906 35.9628 49.2531 35.9191C49.0156 35.8753 48.7594 35.8753 48.4969 35.9191C48.0469 36.0316 47.5719 36.3128 47.1594 36.8128ZM37.0781 27.4253C37.0094 28.0128 36.4719 28.4253 35.8656 28.3628C35.2844 28.2753 34.8719 27.7316 34.9594 27.1441C34.9594 27.1441 35.0469 26.4441 34.9844 26.4253C34.7844 26.3816 34.0719 26.3566 33.1906 26.3378C32.1531 26.3378 30.9031 26.3128 29.7344 26.2066C27.9844 26.0316 26.8406 25.4003 26.2156 24.5941C25.8219 24.0941 25.6281 23.5003 25.6281 22.9128C25.6094 22.3503 25.7594 21.7816 26.0656 21.2566C26.6219 20.2816 27.7219 19.4753 29.1906 19.1691C30.7469 18.8628 34.7219 18.9941 37.8344 19.1003C39.0844 19.1441 40.1844 19.1878 40.8781 19.1878H40.9406C41.9156 19.2566 42.5844 19.0816 42.9906 18.7753C43.1656 18.6441 43.2969 18.5128 43.3844 18.3628C43.4656 18.1878 43.5094 18.0128 43.5094 17.8628C43.5344 17.5316 43.4469 17.2316 43.2719 16.9878C42.9469 16.4878 43.0594 15.8128 43.5344 15.4628C44.0281 15.1191 44.6969 15.2503 45.0469 15.7253C45.4969 16.3816 45.7156 17.1878 45.6719 17.9941C45.6469 18.4691 45.5219 18.9503 45.2844 19.3878C45.0469 19.8191 44.6969 20.2128 44.2469 20.5441C43.4469 21.1066 42.3219 21.4566 40.8094 21.3441C40.0531 21.3441 38.9781 21.3066 37.7656 21.2816C34.7844 21.1753 30.9406 21.0441 29.6281 21.3066C28.7844 21.4753 28.2031 21.8941 27.9219 22.3503C27.8094 22.5253 27.7656 22.7003 27.7656 22.8691C27.7656 23.0003 27.8344 23.1316 27.9219 23.2628C28.2031 23.6316 28.8469 23.9378 29.9281 24.0503C31.0281 24.1378 32.2156 24.1566 33.2094 24.1816C34.2469 24.2003 35.0906 24.2003 35.4969 24.3066C37.4219 24.7878 37.0969 27.4253 37.0781 27.4253ZM25.0031 40.1691C24.9594 39.5566 25.4156 39.0566 26.0219 39.0128C26.6031 38.9691 27.1219 39.4253 27.1656 40.0378C27.2531 41.4316 27.4469 43.4378 27.8094 45.3503C28.1781 47.1628 28.6969 48.8628 29.4344 49.7503C29.4969 49.8191 29.5844 49.8816 29.6719 49.9503C30.7906 50.8441 33.4469 51.3003 36.1469 51.2566C38.8469 51.2128 41.5469 50.7128 42.7531 49.6691C42.8844 49.5816 42.9719 49.4691 43.0344 49.3816C43.3594 48.9691 43.6406 48.3566 43.8781 47.6378C43.3844 47.5941 42.8656 47.5566 42.3656 47.5316C39.1281 47.3128 35.8031 47.3566 33.4031 47.4628C32.8219 47.4878 32.3281 47.0316 32.2844 46.4441C32.2594 45.8316 32.7344 45.3316 33.3156 45.3066C35.7781 45.2003 39.1906 45.1378 42.4969 45.3503C43.1219 45.3941 43.7719 45.4378 44.3969 45.5066C44.9156 42.6941 45.0656 39.1441 45.0219 36.5316C45.0031 36.5066 45.0031 36.4628 45.0031 36.4191C45.0031 36.2066 45.0031 36.0066 45.0031 35.8128L44.9781 35.5253C43.9406 36.2066 42.4531 36.7066 40.7219 37.0128C39.1469 37.2941 37.3344 37.4253 35.5219 37.4441C33.7281 37.4691 31.9156 37.3566 30.3406 37.0941C27.1656 36.5941 24.8094 35.4628 24.7219 33.6128C24.7031 33.4128 24.7219 33.2441 24.7469 33.0691C25.0031 31.7191 26.3656 30.7816 28.3281 30.1941C29.9906 29.6878 32.1281 29.3878 34.3344 29.2753C36.9219 29.1253 39.6031 29.2566 41.5906 29.6253C42.1719 29.7316 42.5406 30.3003 42.4344 30.8878C42.3219 31.4753 41.7594 31.8691 41.1781 31.7566C39.3656 31.4316 36.8844 31.3003 34.4406 31.4316C32.4094 31.5441 30.4469 31.8253 28.9531 32.2816C27.7469 32.6316 26.9469 33.0441 26.8594 33.4566V33.5003C26.9031 34.1128 28.5031 34.6128 30.6844 34.9628C32.1281 35.1816 33.8156 35.2878 35.4969 35.2878C37.1844 35.2691 38.8656 35.1128 40.3594 34.8503C42.5844 34.4628 44.2469 33.8941 44.3344 33.2003C44.3344 33.0878 44.3531 33.0003 44.3781 32.8941C44.4594 32.6066 44.5719 32.3941 44.6969 32.1941C44.7656 32.1316 44.8281 32.0441 44.9156 31.9753C45.9969 31.1066 46.6844 31.6753 46.9469 33.3503C46.9906 33.5691 47.0094 33.8503 47.0531 34.1566C47.3781 34.0066 47.7031 33.8753 48.0469 33.8066C48.5844 33.6753 49.1469 33.6753 49.6906 33.7878C50.2031 33.8941 50.7219 34.1128 51.1531 34.4191C52.0406 35.0253 52.7344 35.9878 52.9906 37.2253C53.7281 40.6503 51.6094 42.3441 49.2781 44.2191C48.6281 44.7441 47.9344 45.3066 47.3344 45.8941C48.0219 46.0253 48.7156 46.1816 49.3406 46.3566C50.8344 46.7503 52.4719 47.3816 53.6594 48.1628C54.3719 48.6441 54.9344 49.1878 55.2594 49.8191C55.6719 50.5816 55.7094 51.4066 55.2594 52.2566C55.0219 52.7191 54.6344 53.1503 54.0719 53.5878C52.7344 54.6566 50.4406 55.4378 47.6156 56.0066C44.6344 56.5941 40.9844 56.9191 37.2719 56.9878C33.1031 57.0753 28.8281 56.8128 25.2844 56.2691C21.9406 55.7441 19.2156 54.9191 17.7281 53.7816C17.1219 53.3253 16.6906 52.8003 16.4531 52.2566C16.1094 51.4753 16.1094 50.6441 16.4531 49.8816C16.7344 49.2066 17.2531 48.5566 17.9844 48.0128C19.0469 47.2503 20.5594 46.6128 22.4156 46.3128C22.9969 46.2003 23.5594 46.6128 23.6469 47.2066C23.7531 47.7941 23.3406 48.3566 22.7594 48.4441C21.2469 48.7066 20.0594 49.1878 19.2594 49.7753C18.8469 50.0816 18.5469 50.4066 18.4156 50.7128C18.3344 50.9316 18.3344 51.1691 18.4156 51.3628C18.5281 51.5816 18.7219 51.8253 19.0219 52.0378C20.2094 52.9566 22.6094 53.6316 25.6094 54.1128C29.0219 54.6566 33.1656 54.8941 37.2281 54.8066C40.8094 54.7441 44.3344 54.4378 47.2031 53.8691C49.7094 53.3691 51.6969 52.7191 52.7531 51.8878C53.0531 51.6503 53.2531 51.4316 53.3594 51.2316C53.4219 51.0816 53.4219 50.9503 53.3594 50.8191C53.2281 50.5378 52.9031 50.2566 52.4719 49.9691C51.5031 49.3191 50.0969 48.7941 48.8031 48.4441C47.9344 48.2253 47.0094 48.0316 45.9969 47.9003C45.6719 49.0566 45.2594 50.0378 44.7406 50.7128C44.5719 50.9316 44.3781 51.1503 44.1406 51.3441C42.5156 52.6941 39.3219 53.3941 36.1719 53.4378C33.0406 53.4753 29.8656 52.8691 28.3531 51.6691C28.1344 51.5191 27.9406 51.3191 27.7906 51.1503C26.7781 49.9253 26.1281 47.8816 25.6969 45.7691C25.3094 43.7628 25.1094 41.6503 25.0031 40.1691Z" fill="#050505"/>
</g>
</svg>
