<svg width="28" height="28" viewBox="0 0 28 28" fill="none" xmlns="http://www.w3.org/2000/svg">
<path d="M12.1149 26.2447L21.8259 9.52375C22.0458 9.14515 21.7339 8.67932 21.3001 8.73828L14.8406 9.61629L16.384 1.51351C16.436 1.24035 16.0839 1.08383 15.916 1.30548L6.36786 13.9089C6.08977 14.276 6.38421 14.798 6.84227 14.7497L13.9638 14.0001L11.6292 26.0626C11.5728 26.3536 11.966 26.5009 12.1149 26.2447Z" fill="#FFAB00"/>
<path d="M9.35374 13.0159C9.1754 13.0301 9.05695 12.8352 9.15178 12.6835L16.2906 1.26133C16.1844 1.17733 16.0172 1.17191 15.9159 1.30557L6.36786 13.909C6.08977 14.2761 6.38421 14.7981 6.84227 14.7498L13.9638 14.0002L11.6292 26.0627C11.5977 26.2254 11.7075 26.3398 11.8357 26.3673L15.8363 13.7079C16.0239 13.1146 15.5508 12.5201 14.9304 12.5698L9.35374 13.0159Z" fill="#FFAB00"/>
<path d="M22.7074 8.36526C22.6647 8.3015 22.6049 8.25099 22.5349 8.21948C22.4649 8.18797 22.3874 8.17671 22.3114 8.18698L15.3506 9.13313L16.2459 4.43252C16.2663 4.32566 16.2434 4.2151 16.1822 4.12514C16.121 4.03519 16.0266 3.97322 15.9198 3.95286C15.6977 3.91053 15.4825 4.05655 15.4401 4.27901L14.4381 9.53957C14.4259 9.60346 14.4291 9.66933 14.4475 9.73174C14.4658 9.79416 14.4986 9.85132 14.5434 9.89852C14.5881 9.94571 14.6435 9.98159 14.7048 10.0032C14.7662 10.0248 14.8318 10.0315 14.8962 10.0227L21.5906 9.11279L12.1976 25.2862L13.8578 16.7085C13.8784 16.6017 13.8558 16.4911 13.7949 16.401C13.734 16.3108 13.6398 16.2486 13.533 16.2279C13.4802 16.2177 13.4258 16.2179 13.373 16.2287C13.3202 16.2395 13.2701 16.2605 13.2255 16.2907C13.1808 16.3208 13.1426 16.3595 13.1129 16.4044C13.0832 16.4494 13.0627 16.4998 13.0524 16.5526L10.9313 27.512C10.9129 27.6072 10.9288 27.7057 10.9761 27.7903C11.0235 27.8748 11.0993 27.9399 11.19 27.9739C11.2807 28.0079 11.3806 28.0087 11.4718 27.9761C11.5631 27.9436 11.6399 27.8797 11.6886 27.796L22.7212 8.79937C22.7598 8.73298 22.7789 8.65709 22.7765 8.58034C22.7741 8.5036 22.7501 8.42908 22.7074 8.36526Z" fill="#1F2022"/>
<path d="M13.3916 14.7992C13.3801 14.8586 13.3819 14.9198 13.3968 14.9785C13.4118 15.0371 13.4395 15.0917 13.478 15.1384C13.5165 15.185 13.5649 15.2226 13.6197 15.2483C13.6744 15.2741 13.7342 15.2874 13.7947 15.2874C13.8899 15.2872 13.9821 15.254 14.0555 15.1934C14.1288 15.1328 14.1789 15.0485 14.1969 14.9551L14.3667 14.0781C14.3789 14.0152 14.3762 13.9503 14.3587 13.8886C14.3413 13.8269 14.3097 13.7701 14.2663 13.7229C14.223 13.6756 14.1692 13.6392 14.1092 13.6165C14.0493 13.5938 13.9848 13.5855 13.9211 13.5923L6.53341 14.3699L15.8636 2.05396L15.7738 2.52548C15.7637 2.57842 15.764 2.63286 15.7749 2.68566C15.7858 2.73847 15.807 2.78861 15.8373 2.83322C15.8676 2.87782 15.9064 2.91602 15.9514 2.94563C15.9965 2.97524 16.0469 2.99567 16.0999 3.00576C16.1528 3.01585 16.2073 3.0154 16.2601 3.00443C16.3129 2.99346 16.363 2.9722 16.4075 2.94184C16.4521 2.91149 16.4902 2.87266 16.5198 2.82755C16.5493 2.78245 16.5697 2.73196 16.5797 2.67899L16.9972 0.487055C17.0145 0.396181 17.0006 0.302131 16.9577 0.220177C16.9148 0.138224 16.8454 0.0731785 16.7609 0.0356044C16.6763 -0.00196977 16.5816 -0.00986648 16.492 0.0131965C16.4024 0.0362595 16.3233 0.0889278 16.2674 0.162649L5.30781 14.6292C5.25952 14.693 5.23092 14.7695 5.22554 14.8493C5.22016 14.9292 5.23822 15.0088 5.27751 15.0785C5.3168 15.1482 5.37562 15.2049 5.44672 15.2415C5.51783 15.2782 5.5981 15.2932 5.67766 15.2848L13.456 14.4661L13.3916 14.7992Z" fill="#1F2022"/>
</svg>
